<svg version="1.2" xmlns="http://www.w3.org/2000/svg" viewBox="0 0 56 25" width="56" height="25"><style>.a{fill:#030504}</style><path fill-rule="evenodd" class="a" d="m17.3 13.4h2.9c0.9-0.1 1.6 0.3 2.2 0.8 0.6 0.6 0.9 1.4 0.9 2.2 0 0.8-0.3 1.6-0.9 2.2-0.6 0.5-1.3 0.8-2.2 0.8h-1.3v2.5h-1.6zm1.6 1.4v3.2h1.2c0.4 0 0.8-0.2 1.1-0.5 0.3-0.3 0.5-0.7 0.5-1.1 0-0.4-0.2-0.8-0.5-1.1-0.3-0.3-0.7-0.5-1.1-0.5z"/><path fill-rule="evenodd" class="a" d="m23.6 18.5q0-0.7 0.2-1.4 0.3-0.6 0.7-1.1 0.5-0.6 1.2-0.8 0.6-0.3 1.3-0.3 0.3 0 0.6 0.1 0.3 0 0.6 0.1 0.3 0.2 0.5 0.3 0.3 0.2 0.5 0.5v-0.9h1.5v6.9h-1.5v-0.9q-0.2 0.2-0.5 0.4-0.2 0.2-0.5 0.3-0.3 0.2-0.6 0.2-0.3 0.1-0.6 0.1-0.7 0-1.4-0.3-0.6-0.3-1.1-0.8-0.4-0.5-0.7-1.1-0.2-0.7-0.2-1.3zm5.7-0.1c-0.1-0.8-0.6-1.5-1.4-1.8-0.7-0.3-1.6-0.1-2.2 0.5-0.5 0.6-0.7 1.5-0.4 2.2 0.4 0.8 1.1 1.3 1.9 1.3q0.4-0.1 0.8-0.2 0.4-0.2 0.7-0.5 0.3-0.3 0.4-0.7 0.2-0.4 0.2-0.8z"/><path class="a" d="m34.1 21.5l-2.8-6.5h1.6l1.9 4.6 1.8-4.6h1.7l-4.1 10h-1.6z"/><path class="a" d="m47.9 0.3v7.8h-2.8l-2-6.4 0.1 6.4h-2v-7.8h3l1.8 6.2-0.1-6.2z"/><path class="a" d="m12 0.3l1.5 7.9h-2.1l-1.1-7.2-1.1 7.2h-2.2l1.5-7.9z"/><path class="a" d="m23.8 0.3l0.1 7.9h-1.9l-0.1-7.1-1.4 7.1h-2l-1.3-7.1h-0.1v7.1h-2l0.2-7.9h3.2l1 6 1-6z"/><path class="a" d="m0.1 2.8q0-0.1 0-0.2 0-0.2-0.1-0.3 0-0.1 0.1-0.3 0-0.1 0-0.2c0.2-1.3 1.4-1.8 2.8-1.8 1.1 0 2.7 0.3 2.7 2v0.6h-2v-0.5q0-0.2-0.1-0.3 0-0.1-0.1-0.3-0.1-0.1-0.3-0.1-0.1-0.1-0.3 0-0.1-0.1-0.2 0-0.1 0-0.2 0.1-0.1 0.1-0.2 0.2-0.1 0.1-0.1 0.2 0 0 0 0.1 0 0 0 0.1 0 0.1 0 0.1 0 0.1 0 0.1c0.2 0.9 3.3 1.4 3.6 3.1q0 0.2 0 0.3 0 0.2 0 0.3 0.1 0.2 0 0.4 0 0.1 0 0.3c-0.2 1.3-1.4 1.8-2.8 1.8-1.5 0-2.9-0.5-2.9-2.3v-0.6h2.1v0.8q0 0.1 0.1 0.3 0.1 0.1 0.2 0.2 0.1 0.1 0.2 0.2 0.2 0 0.3 0 0.2 0 0.3 0 0.1-0.1 0.2-0.1 0.1-0.1 0.2-0.2 0.1-0.1 0.1-0.2 0-0.1 0-0.2 0-0.1 0-0.1 0-0.1 0-0.2 0-0.1 0-0.1c-0.4-1.1-3.2-1.5-3.6-3.2z"/><path class="a" d="m26 2.8q0-0.1 0-0.2-0.1-0.2-0.1-0.3 0-0.1 0-0.3 0.1-0.1 0.1-0.2c0.2-1.3 1.3-1.8 2.7-1.8 1.1 0 2.7 0.3 2.7 2v0.6h-2v-0.5q0-0.2 0-0.3-0.1-0.1-0.2-0.2-0.1-0.1-0.2-0.2-0.2 0-0.3 0-0.1 0-0.3 0-0.1 0-0.2 0.1-0.1 0.1-0.1 0.2-0.1 0.1-0.1 0.2 0 0.1 0 0.1 0 0.1 0 0.1 0 0.1 0 0.1 0 0.1 0 0.1c0.2 0.9 3.2 1.4 3.5 3.1q0 0.1 0.1 0.3 0 0.2 0 0.3 0 0.2 0 0.3 0 0.2-0.1 0.4c-0.2 1.3-1.3 1.8-2.8 1.8-1.4 0-2.8-0.6-2.8-2.3v-0.6h2.1v0.7q0 0.2 0.1 0.3 0 0.2 0.1 0.3 0.1 0.1 0.3 0.1 0.1 0.1 0.3 0.1 0.1 0 0.2-0.1 0.2 0 0.3-0.1 0.1 0 0.2-0.1 0-0.1 0.1-0.3 0 0 0-0.1 0-0.1 0-0.2 0 0 0-0.1 0-0.1-0.1-0.2c-0.4-1-3.2-1.4-3.5-3.1z"/><path class="a" d="m36.2 7q0.1 0 0.3 0 0.1-0.1 0.2-0.1 0.1-0.1 0.2-0.2 0-0.1 0.1-0.3v-0.3-5.8h2v5.7c0 0.1 0 0.4 0 0.5-0.2 1.5-1.3 1.9-2.8 1.9-1.4 0-2.6-0.4-2.8-1.9 0-0.1 0-0.4 0-0.5v-5.7h2v5.8 0.3q0.1 0.2 0.1 0.3 0.1 0.1 0.2 0.2 0.1 0 0.3 0.1 0.1 0 0.2 0z"/><path class="a" d="m52.8 6.9q0.1 0 0.3 0 0.1 0 0.2-0.1 0.1-0.1 0.2-0.2 0.1-0.1 0.1-0.2v-0.3-1.2h-0.8v-1.2h2.8v2.2q0 0 0 0.1 0 0.1 0 0.1 0 0.1 0 0.2 0 0 0 0.1c-0.1 1.4-1.4 2-2.8 2-1.4 0-2.7-0.6-2.8-2 0-0.3 0-0.4 0-0.5v-3.4q0 0 0-0.1 0-0.1 0-0.1 0-0.1 0-0.2 0 0 0-0.1c0.2-1.5 1.4-2 2.8-2 1.4 0 2.6 0.5 2.8 2q0 0.1 0 0.1 0 0.1 0 0.2 0 0 0 0.1 0 0.1 0 0.1v0.3h-2v-0.5-0.3q-0.1-0.1-0.1-0.2-0.1-0.1-0.2-0.2-0.1-0.1-0.3-0.1-0.1 0-0.2 0-0.2 0-0.3 0-0.1 0-0.2 0.1-0.1 0.1-0.2 0.2-0.1 0.1-0.1 0.2 0 0.1 0 0.1 0 0.1 0 0.1 0 0.1 0 0.1 0 0.1 0 0.1v3.7 0.3q0 0.1 0.1 0.2 0.1 0.1 0.2 0.2 0.1 0.1 0.2 0.1 0.1 0.1 0.3 0z"/></svg>